<svg width="43" height="50" viewBox="0 0 43 50" fill="none" xmlns="http://www.w3.org/2000/svg">
  <path fill-rule="evenodd" clip-rule="evenodd" d="M31.8022 17.6318C31.8022 20.1083 30.9185 22.3819 29.4499 24.1552L42.7383 47.0897C43.2788 48.0209 42.9543 49.2053 42.0199 49.7434C41.0852 50.2753 39.8963 49.9523 39.3561 49.0278L32.5976 37.3615C29.8957 39.5021 26.7165 40.7499 23.4614 41.1047V42.9479C23.4614 44.0245 22.5841 44.8985 21.5034 44.8985C20.4163 44.8985 19.5386 44.0245 19.5386 42.9479V41.1047C16.2835 40.75 13.1043 39.5021 10.4025 37.3615L3.64402 49.0278C3.10349 49.9523 1.91457 50.2757 0.980163 49.7434C0.0453956 49.205 -0.278771 48.0206 0.261781 47.0897L13.5502 24.1624C12.0815 22.389 11.1979 20.1089 11.1979 17.6323C11.1979 14.8011 12.355 12.2297 14.2178 10.374C15.642 8.95524 17.4859 7.94806 19.5391 7.55576V1.95061C19.5391 0.873972 20.4165 0 21.5038 0C22.5846 0 23.4619 0.873981 23.4619 1.95061V7.55576C25.5218 7.94846 27.3591 8.95533 28.7833 10.374C30.6524 12.2297 31.8031 14.8011 31.8031 17.6323L31.8022 17.6318ZM26.0166 22.1287C27.1673 20.9823 27.8856 19.386 27.8856 17.6318C27.8856 15.8776 27.1673 14.2876 26.0166 13.135C24.8595 11.9824 23.2634 11.2731 21.5025 11.2731C19.7349 11.2731 18.1392 11.9824 16.9885 13.135C15.8315 14.2876 15.113 15.8776 15.113 17.6318C15.113 19.386 15.8314 20.9823 16.9885 22.1287C18.1392 23.2813 19.735 23.9906 21.5025 23.9906C23.2634 23.9906 24.8595 23.2812 26.0166 22.1287ZM26.3982 26.6635C24.9421 27.4489 23.2701 27.8984 21.5025 27.8984C19.7286 27.8984 18.0566 27.4489 16.6006 26.6635L12.3918 33.928C14.471 35.7269 16.9629 36.8098 19.5381 37.1707V35.5748C19.5381 34.4982 20.4155 33.6242 21.5029 33.6242C22.5836 33.6242 23.4609 34.4982 23.4609 35.5748V37.1707C26.0358 36.8098 28.5281 35.7265 30.6137 33.928L26.3986 26.6635H26.3982Z" fill="url(#paint0_linear_20_25)"/>
  <defs>
    <linearGradient id="paint0_linear_20_25" x1="35" y1="5" x2="4.5" y2="45.5" gradientUnits="userSpaceOnUse">
      <stop stop-color="#27C2FC"/>
      <stop offset="1" stop-color="#20E0BE"/>
    </linearGradient>
  </defs>
</svg>