<svg width="51" height="51" viewBox="0 0 51 51" fill="none" xmlns="http://www.w3.org/2000/svg">
  <path d="M13.2898 37.0179C13.6402 36.3324 13.9906 35.6469 14.341 34.9614C15.1883 33.3082 16.0293 31.6549 16.8767 29.9949C17.896 28.0056 18.909 26.0096 19.9283 24.0204C20.8075 22.2999 21.6868 20.5727 22.566 18.8522C22.9928 18.0121 23.4388 17.1788 23.8529 16.3319C23.8593 16.3185 23.8657 16.3051 23.8721 16.2916C24.3435 15.3642 24.1205 14.0537 23.184 13.5362C22.2921 13.0388 21.0751 13.2673 20.5719 14.262C20.2215 14.9475 19.8711 15.633 19.5207 16.3184C18.6733 17.9717 17.8324 19.6249 16.985 21.2849C15.9656 23.2743 14.9526 25.2703 13.9333 27.2595C13.0541 28.98 12.1749 30.7072 11.2956 32.4277C10.8688 33.2677 10.4228 34.1011 10.0087 34.9479C10.0023 34.9614 9.99595 34.9748 9.98958 34.9882C9.51812 35.9157 9.74111 37.2262 10.6776 37.7437C11.5632 38.2343 12.7801 38.0125 13.2898 37.0179Z" fill="url(#paint0_linear_21_53)"/>
  <path d="M35.9324 40.8275H15.4879C14.4876 40.8275 13.532 41.7549 13.5766 42.8436C13.6212 43.9391 14.4176 44.8598 15.4879 44.8598H35.9324C36.9326 44.8598 37.8883 43.9323 37.8436 42.8436C37.799 41.7482 37.0027 40.8275 35.9324 40.8275Z" fill="url(#paint1_linear_21_53)"/>
  <path d="M27.5992 16.2911C27.9497 16.9766 28.3001 17.6621 28.6505 18.3476C29.4978 20.0008 30.3387 21.6541 31.1862 23.3073C32.2055 25.2967 33.2249 27.2927 34.2378 29.2819C35.117 31.0024 35.9963 32.7296 36.8818 34.4501C37.3086 35.2901 37.7227 36.1436 38.1687 36.9703C38.1751 36.9838 38.1815 36.9972 38.1878 37.0106C38.6657 37.9381 39.959 38.3077 40.8 37.7364C41.6919 37.1249 41.9914 35.9689 41.488 34.981C41.1376 34.2955 40.7872 33.61 40.4368 32.9245C39.5895 31.2713 38.7485 29.6181 37.9011 27.9648C36.8817 25.9755 35.8624 23.9795 34.8494 21.9902C33.9702 20.2698 33.091 18.5425 32.2055 16.8221C31.7786 15.982 31.3645 15.1285 30.9185 14.3018C30.9122 14.2884 30.9058 14.2749 30.8994 14.2615C30.4216 13.3341 29.1283 12.9644 28.2873 13.5357C27.3954 14.1473 27.0959 15.2965 27.5992 16.2911Z" fill="url(#paint2_linear_21_53)"/>
  <path d="M33.1224 8.42861C33.1224 11.3856 31.5552 13.9597 29.2553 15.2769C28.2104 15.8751 27.0127 16.2111 25.7448 16.2111C24.4706 16.2111 23.2793 15.8751 22.2344 15.2769C19.9281 13.9597 18.3672 11.3857 18.3672 8.42861C18.3672 4.12744 21.6738 0.639435 25.7512 0.639435C29.816 0.639435 33.1224 4.12744 33.1224 8.42861Z" fill="url(#paint3_linear_21_53)"/>
  <path d="M15.4811 42.8503C15.4811 47.1514 12.1873 50.6394 8.1099 50.6394C4.03246 50.6394 0.7323 47.1514 0.7323 42.8503C0.7323 38.5491 4.03887 35.0611 8.11631 35.0611C9.39057 35.0611 10.5755 35.3971 11.6139 35.9952C13.9267 37.3191 15.4811 39.8933 15.4811 42.8503Z" fill="url(#paint4_linear_21_53)"/>
  <path d="M50.7323 42.8503C50.7323 47.1514 47.4066 50.6394 43.3292 50.6394C39.2517 50.6394 35.9261 47.1514 35.9261 42.8503V42.8435C35.9261 39.8865 37.5124 37.3125 39.8123 36.002C40.8572 35.4038 42.0613 35.0678 43.3355 35.0678C47.4193 35.0678 50.7322 38.5491 50.7322 42.8502L50.7323 42.8503Z" fill="url(#paint5_linear_21_53)"/>
  <defs>
    <linearGradient id="paint0_linear_21_53" x1="44.5" y1="3.5" x2="2.5" y2="47" gradientUnits="userSpaceOnUse">
      <stop stop-color="#27C2FC"/>
      <stop offset="1" stop-color="#20E0BE"/>
    </linearGradient>
    <linearGradient id="paint1_linear_21_53" x1="44.5" y1="3.5" x2="2.5" y2="47" gradientUnits="userSpaceOnUse">
      <stop stop-color="#27C2FC"/>
      <stop offset="1" stop-color="#20E0BE"/>
    </linearGradient>
    <linearGradient id="paint2_linear_21_53" x1="44.5" y1="3.5" x2="2.5" y2="47" gradientUnits="userSpaceOnUse">
      <stop stop-color="#27C2FC"/>
      <stop offset="1" stop-color="#20E0BE"/>
    </linearGradient>
    <linearGradient id="paint3_linear_21_53" x1="44.5" y1="3.5" x2="2.5" y2="47" gradientUnits="userSpaceOnUse">
      <stop stop-color="#27C2FC"/>
      <stop offset="1" stop-color="#20E0BE"/>
    </linearGradient>
    <linearGradient id="paint4_linear_21_53" x1="44.5" y1="3.5" x2="2.5" y2="47" gradientUnits="userSpaceOnUse">
      <stop stop-color="#27C2FC"/>
      <stop offset="1" stop-color="#20E0BE"/>
    </linearGradient>
    <linearGradient id="paint5_linear_21_53" x1="44.5" y1="3.5" x2="2.5" y2="47" gradientUnits="userSpaceOnUse">
      <stop stop-color="#27C2FC"/>
      <stop offset="1" stop-color="#20E0BE"/>
    </linearGradient>
  </defs>
</svg>
