<svg width="50" height="50" viewBox="0 0 50 50" fill="none" xmlns="http://www.w3.org/2000/svg">
  <path d="M40.6143 27.232C48.2475 18.1248 50.1954 5.43769 49.9848 1.59474C49.9848 1.17355 49.7744 0.805245 49.5111 0.489048C49.2478 0.225757 48.8795 0.0153439 48.4054 0.0153439C44.5625 -0.195069 31.8754 1.70011 22.8207 9.33327L20.7152 8.54378C17.0302 7.17515 12.8712 8.28049 10.3444 11.2813L4.501 18.1771C3.65862 19.1245 4.07981 20.6513 5.2905 21.0726L11.5552 23.389C10.1865 25.7053 9.23875 27.653 8.60722 29.022C8.08064 30.1277 8.34393 31.4437 9.23883 32.3386L17.662 40.8137C18.5043 41.6561 19.8204 41.9194 20.9786 41.3928C22.3472 40.7612 24.2952 39.8135 26.6116 38.4449L28.8751 44.7095C29.2963 45.9202 30.8228 46.2889 31.7706 45.499L38.6143 39.6557C41.6152 37.1289 42.7205 32.9699 41.3519 29.285L40.6143 27.232ZM36.666 20.6516C34.6655 22.6521 31.4017 22.6521 29.3486 20.6516C27.3481 18.651 27.3481 15.3872 29.3486 13.3342C31.3491 11.3336 34.6129 11.3336 36.666 13.3342C38.6666 15.3872 38.6666 18.651 36.666 20.6516Z" fill="url(#paint0_linear_21_27)"/>
  <path d="M14.0293 42.9723L10.239 46.7097C9.50203 47.4467 9.50203 48.7103 10.239 49.4473C10.976 50.1843 12.2396 50.1843 12.9766 49.4473L16.7669 45.657C17.5039 44.92 17.5039 43.6564 16.7669 42.9194C15.977 42.1825 14.7664 42.1825 14.0293 42.9723V42.9723Z" fill="url(#paint1_linear_21_27)"/>
  <path d="M11.871 38.1291C11.134 37.3921 9.87046 37.3921 9.13345 38.1291L3.13248 44.1829C2.3955 44.9199 2.3955 46.1834 3.13248 46.9204C3.86947 47.6574 5.13303 47.6574 5.87003 46.9204L11.871 40.8137C12.6609 40.0767 12.6609 38.866 11.871 38.129V38.1291Z" fill="url(#paint2_linear_21_27)"/>
  <path d="M7.08043 36.0234C7.81742 35.2864 7.81742 34.0228 7.08043 33.2858C6.34344 32.5488 5.07989 32.5488 4.34288 33.2858L0.552558 37.0761C-0.18443 37.8131 -0.18443 39.0767 0.552558 39.8137C1.28955 40.5507 2.5531 40.5507 3.29011 39.8137L7.08043 36.0234Z" fill="url(#paint3_linear_21_27)"/>
  <defs>
    <linearGradient id="paint0_linear_21_27" x1="27.0301" y1="-6.5684e-07" x2="4.99697" y2="45.0068" gradientUnits="userSpaceOnUse">
      <stop stop-color="#27C2FC"/>
      <stop offset="1" stop-color="#20E0BE"/>
    </linearGradient>
    <linearGradient id="paint1_linear_21_27" x1="13.503" y1="42.3731" x2="9.84396" y2="49.8499" gradientUnits="userSpaceOnUse">
      <stop stop-color="#27C2FC"/>
      <stop offset="1" stop-color="#20E0BE"/>
    </linearGradient>
    <linearGradient id="paint2_linear_21_27" x1="7.52157" y1="37.5764" x2="2.76725" y2="47.2702" gradientUnits="userSpaceOnUse">
      <stop stop-color="#27C2FC"/>
      <stop offset="1" stop-color="#20E0BE"/>
    </linearGradient>
    <linearGradient id="paint3_linear_21_27" x1="3.8165" y1="32.7331" x2="0.152508" y2="40.2138" gradientUnits="userSpaceOnUse">
      <stop stop-color="#27C2FC"/>
      <stop offset="1" stop-color="#20E0BE"/>
    </linearGradient>
  </defs>
</svg>
