<?xml version="1.0" standalone="no"?>
<!DOCTYPE svg PUBLIC "-//W3C//DTD SVG 20010904//EN"
 "http://www.w3.org/TR/2001/REC-SVG-20010904/DTD/svg10.dtd">
<svg version="1.0" xmlns="http://www.w3.org/2000/svg"
 width="500.000000pt" height="500.000000pt" viewBox="0 0 500.000000 500.000000"
 preserveAspectRatio="xMidYMid meet">
<metadata>
Created by potrace 1.11, written by Peter Selinger 2001-2013
</metadata>
<g transform="translate(0.000000,500.000000) scale(0.100000,-0.100000)"
fill="#000000" stroke="none">
<path d="M540 3173 c-144 -30 -256 -110 -308 -220 -24 -51 -27 -70 -27 -153 1
-79 5 -102 24 -138 51 -100 144 -171 301 -235 133 -54 175 -75 210 -110 39
-38 52 -68 52 -123 0 -113 -89 -178 -242 -177 -47 0 -96 3 -110 6 -63 13 -119
31 -162 53 l-47 24 -16 -54 c-9 -29 -17 -62 -20 -72 -18 -86 -20 -79 22 -96
173 -74 409 -83 563 -23 114 45 183 106 229 205 22 48 26 68 26 155 0 90 -3
106 -28 155 -48 94 -127 160 -257 215 -235 99 -298 144 -302 216 -3 66 2 86
34 118 67 68 171 83 334 47 11 -2 37 -11 58 -20 21 -9 42 -16 46 -16 8 0 23
35 39 90 5 19 14 50 20 68 9 31 8 33 -27 48 -106 44 -294 61 -412 37z"/>
<path d="M1311 3160 c-4 -3 -8 -302 -7 -666 l0 -661 401 1 400 1 2 96 c2 84 0
97 -15 101 -9 2 -135 3 -279 3 -256 -1 -261 -1 -265 19 -3 18 -2 307 1 356 1
13 34 15 238 14 131 0 243 1 249 3 7 3 12 38 12 99 l1 94 -167 1 c-92 0 -204
0 -249 -1 -62 -1 -83 2 -84 12 -6 83 -2 321 6 327 6 4 125 7 266 7 l256 -1 -1
100 -1 100 -378 0 c-208 0 -382 -2 -386 -5z"/>
<path d="M2684 3145 c-3 -11 -27 -87 -54 -170 -26 -82 -62 -193 -78 -245 -61
-193 -185 -580 -233 -725 -27 -83 -49 -156 -49 -162 0 -8 37 -11 123 -10 l122
2 22 70 c12 39 38 123 58 188 l36 117 212 -2 211 -3 60 -186 59 -187 129 1
c70 1 128 4 128 8 0 4 -17 60 -39 125 -50 154 -123 378 -261 804 -61 190 -116
356 -121 370 l-9 25 -155 0 c-147 0 -155 -1 -161 -20z m195 -321 c21 -76 59
-204 85 -283 25 -80 46 -145 46 -146 0 -1 -324 2 -332 4 -3 0 0 20 7 44 66
209 106 347 126 429 12 54 24 96 26 94 2 -1 20 -65 42 -142z"/>
<path d="M3576 3091 c-1 -3 -2 -278 -2 -611 l1 -604 623 -1 c342 0 622 2 623
5 1 3 2 276 3 608 1 528 -1 603 -14 606 -24 7 -1230 4 -1234 -3z"/>
</g>
</svg>
